<svg width="149" height="198" viewBox="0 0 149 198" fill="none" xmlns="http://www.w3.org/2000/svg">
<path d="M0.48439 31.8753C0.48439 26.3524 4.96154 21.8752 10.4844 21.8752H38.4268V197.745H0.48439V31.8753Z" fill="#3C3C3C"/>
<path d="M0.48439 31.8753C0.48439 26.3524 4.96154 21.8752 10.4844 21.8752H38.4268V197.745H0.48439V31.8753Z" fill="#008000" fill-opacity="0.7"/>
<rect x="38.4268" y="21.8752" width="36.793" height="38.0473" fill="#666666" fill-opacity="0.5"/>
<rect x="38.4268" y="21.8752" width="36.793" height="38.0473" fill="#121212" fill-opacity="0.7"/>
<rect x="38.4268" y="21.8752" width="36.793" height="38.0473" fill="#008000" fill-opacity="0.4"/>
<path d="M75.2198 59.9225H113.162V131.436C113.162 136.959 108.685 141.436 103.162 141.436H75.2198V59.9225Z" fill="#666666"/>
<rect x="38.4268" y="103.389" width="37.9424" height="38.0473" fill="#666666"/>
<path d="M75.2198 31.3871H103.677V59.9225H75.2198V31.3871Z" fill="#666666"/>
<rect x="77.117" y="19.9729" width="9.48561" height="9.51182" fill="#666666"/>
<rect x="117.905" y="47.5572" width="9.48561" height="9.51182" fill="#666666"/>
<rect x="138.773" y="11.4122" width="9.48561" height="9.51182" fill="#666666"/>
<rect x="134.031" y="44.7036" width="9.48561" height="9.51182" fill="#666666"/>
<rect x="133.205" y="29.4847" width="9.48561" height="9.51182" fill="#666666"/>
<rect x="110.956" y="35.1918" width="9.48561" height="9.51182" fill="#666666"/>
<rect x="113.162" y="18.0705" width="9.48561" height="9.51182" fill="#666666"/>
<path d="M124.545 5.70514H134.031V15.217H124.545V5.70514Z" fill="#666666"/>
<rect x="103.677" y="0.949219" width="9.48561" height="9.51182" fill="#666666"/>
<rect x="82.8083" y="8.55869" width="9.48561" height="9.51182" fill="#666666"/>
<rect x="96.0882" y="16.1681" width="9.48561" height="9.51182" fill="#666666"/>
</svg>
